<svg width="607" height="117" viewBox="0 0 607 117" fill="none" xmlns="http://www.w3.org/2000/svg">
<path d="M117.189 99.8335C98.7022 110.625 75.9861 114.227 54.866 112.385C44.1035 111.446 33.45 108.998 23.3656 105.116C17.8622 102.997 12.5367 100.407 7.46588 97.3977C1.02208 93.5754 4.11668 85.6871 5.62628 79.3908C8.55778 67.1639 13.6261 55.5693 19.279 44.3795C24.7953 33.4578 30.4076 22.3112 38.2276 12.8217C40.4836 10.0817 42.6319 7.29841 45.8271 5.71591C49.8267 3.73321 54.9298 3.79191 59.3522 3.50571C63.3615 3.24401 67.4358 2.63041 70.883 5.36141C73.801 7.67351 75.9771 11.9445 76.8885 15.4574C78.0777 20.0552 77.7161 26.5834 73.5464 29.6555C70.6103 31.8206 66.5263 31.8999 62.9476 32.2273C61.9853 32.3137 60.6439 32.6257 59.6635 32.5051C56.8145 32.159 51.7804 29.0096 54.329 25.4354C55.4164 23.9052 60.0438 23.1685 61.79 23.2162C63.832 23.2703 63.8294 20.1029 61.79 20.0461C57.9696 19.9436 49.8447 22.1997 49.3175 27.0114C49.2698 27.4272 49.2698 27.8229 49.3014 28.2052C45.9683 35.3425 45.3862 43.4764 45.0381 51.2513C44.8448 55.499 45.1155 59.8306 44.799 64.0558C44.2079 71.937 38.7439 78.2287 33.3204 83.6882C31.8791 85.1372 34.1184 87.3765 35.5603 85.9281C40.8175 80.6368 45.1129 75.4686 46.9525 68.9855C47.0776 68.901 47.2071 68.8263 47.3257 68.6877C54.8434 59.6739 65.5646 55.5126 76.8911 60.0033C81.0976 61.6721 85.8275 64.9285 87.3854 69.4425C87.8514 70.7929 90.1319 71.0977 90.4413 69.4425C93.7841 51.5059 121.123 56.4382 127.511 69.6378C133.247 81.4896 127.995 93.5257 117.189 99.8335V99.8335ZM127.758 63.8418C118.649 52.4173 94.6955 50.4778 88.5244 64.9285C85.8139 61.0424 81.4025 58.1818 77.1186 56.6741C66.0945 52.788 55.7026 55.8716 47.8098 63.5259C47.842 62.9774 47.9187 62.4572 47.9187 61.8906C47.9187 52.311 47.6396 41.1843 51.1345 31.9843C53.736 34.5903 58.493 35.6745 61.5354 35.5359C69.2845 35.1814 76.6159 34.5536 79.724 26.3243C82.6394 18.6087 79.2605 9.67941 73.8983 3.94661C70.1147 -0.0987869 68.6915 -0.207687 63.2113 0.112713C57.813 0.426613 52.3876 0.710813 47.0569 1.66801C38.1296 3.26911 30.7279 16.9606 26.4351 24.2823C13.6577 46.0805 1.89288 70.02 0.00298334 95.5581C-0.0376167 96.1246 0.341983 96.6319 0.787383 96.9252C34.5851 119.177 84.5042 124.062 119.836 101.982C132.695 93.9486 137.909 76.5689 127.758 63.8418V63.8418Z" fill="#00A559"/>
<path d="M82.671 85.7534C77.5911 90.2352 72.9779 92.1496 66.2015 91.7312C59.7209 91.3309 53.7515 90.415 48.299 86.7151C46.6025 85.5691 45.0175 88.3137 46.696 89.4527C53.1243 93.81 60.6169 94.7878 68.2525 95.0037C74.9967 95.1945 79.9019 92.4183 84.9109 87.9933C86.4437 86.6397 84.1973 84.405 82.671 85.7534V85.7534Z" fill="#00A559"/>
<path d="M53.0534 73.6039C54.5018 70.7542 57.2058 69.0989 59.8569 67.503C61.6056 66.4523 60.0142 63.7096 58.2584 64.7648C55.1547 66.6321 52.0073 68.6761 50.3178 72.0053C49.3974 73.8198 52.1304 75.4248 53.0534 73.6039V73.6039Z" fill="#00A559"/>
<path d="M63.3544 65.8522C65.3938 65.8522 65.3964 62.6822 63.3544 62.6822C61.3149 62.6822 61.3124 65.8522 63.3544 65.8522Z" fill="#00A559"/>
<path d="M169.237 99V68.7876L169.164 62.562H169.97L190.148 99H208.239V46.4854H194.286V76.7344L194.359 82.96H193.517L173.339 46.4854H155.285V99H169.237ZM261.632 93.7632C265.624 89.5151 267.638 83.3994 267.638 75.3794V46.4854H253.759V75.3794C253.759 83.436 249.914 87.4644 242.223 87.4644C234.569 87.4644 230.761 83.436 230.761 75.3794V46.4854H216.808V75.3794C216.808 83.3994 218.822 89.5151 222.851 93.7632C226.842 98.0112 233.324 100.135 242.223 100.135C251.122 100.135 257.604 98.0112 261.632 93.7632ZM274.157 46.4854V58.79H292.467V99H306.42V58.79H324.804V46.4854H274.157ZM373.363 81.7515C378.563 78.5654 381.164 73.2188 381.164 65.7847C381.164 59.9253 379.442 55.2378 376.037 51.7222C372.594 48.2432 367.357 46.4854 360.363 46.4854H331.212V99H345.165V84.9009H360.363H361.205L368.566 99H382.445L373.363 81.7515ZM358.788 58.79C364.794 58.79 367.211 61.207 367.211 65.7847C367.174 70.3257 364.391 72.5962 358.788 72.5962H345.165V58.79H358.788ZM402.733 99V46.4854H388.781V99H402.733ZM407.97 46.4854V58.79H426.281V99H440.233V58.79H458.617V46.4854H407.97ZM478.979 99V46.4854H465.026V99H478.979ZM535.045 92.3716C540.209 87.208 542.772 80.6528 542.772 72.7427C542.772 64.8691 540.209 58.314 535.045 53.1504C529.882 47.9868 522.96 45.3867 514.208 45.3867C505.456 45.3867 498.498 47.9868 493.371 53.1504C488.207 58.314 485.644 64.8691 485.644 72.7427C485.644 80.6528 488.207 87.208 493.371 92.3716C498.498 97.5352 505.456 100.135 514.208 100.135C522.96 100.135 529.882 97.5352 535.045 92.3716ZM503.515 83.3994C500.988 80.6895 499.743 77.1372 499.743 72.7427C499.743 68.3481 500.988 64.7959 503.515 62.0859C506.042 59.4126 509.594 58.0576 514.208 58.0576C518.786 58.0576 522.375 59.4126 524.901 62.0859C527.428 64.7959 528.673 68.3481 528.673 72.7427C528.673 77.1372 527.428 80.6895 524.901 83.3994C522.375 86.1094 518.786 87.4644 514.208 87.4644C509.594 87.4644 506.042 86.1094 503.515 83.3994ZM563.427 99V68.7876L563.354 62.562H564.159L584.337 99H602.428V46.4854H588.476V76.7344L588.549 82.96H587.707L567.528 46.4854H549.474V99H563.427Z" fill="#00A559"/>
</svg>
